<?xml version="1.0" encoding="UTF-8"?>
<svg viewBox="0 0 225.74 491.4" xmlns="http://www.w3.org/2000/svg">
 <path d="m111.7 82.781c20.429 0 36.99-17.916 36.99-40.018 0-22.099-16.562-40.017-36.99-40.017-20.426 0-36.989 17.918-36.989 40.017 0 22.102 16.563 40.018 36.989 40.018z"/>
 <path d="m111.7 42.763"/>
 <path d="m106.23 336.66l0.0148 138.6c0 25.186-34.879 25.186-34.879 0l-0.0148-137.64h-46.836l50.072-187.95h-7.7737l-29.126 106.03c-6.9326 23.125-36.28 13.625-29.566-11.138l32.339-115.19c3.4663-13.136 18.822-36.423 45.402-36.423h50.887c26.344 0 41.768 23.483 45.755 36.423l32.352 115.08c6.4704 24.75-22.646 35-29.579 10.875l-29.117-105.65h-8.4171l50.475 187.95h-46.91v137.83c0 25-34.734 24.875-34.734 0v-138.79h-10.342z"/>
</svg>
